<svg xmlns="http://www.w3.org/2000/svg" viewBox="0 0 24 24" fill="none">
  <path d="M12 7.2A4.8 4.8 0 1 0 12 16.8 4.8 4.8 0 0 0 12 7.2Zm0 7.92A3.12 3.12 0 1 1 12 8.88a3.12 3.12 0 0 1 0 6.24Zm6.12-8.12a1.12 1.12 0 1 0 0-2.24 1.12 1.12 0 0 0 0 2.24ZM21 8.14c-.05-1.05-.29-1.99-1.06-2.76-.77-.77-1.7-1.01-2.76-1.06C16.09 4.27 15.76 4.25 12 4.25s-4.09.02-5.18.07c-1.06.05-1.99.29-2.76 1.06-.77.77-1.01 1.7-1.06 2.76C2.95 9.23 2.93 9.56 2.93 13.32c0 3.76.02 4.09.07 5.18.05 1.06.29 1.99 1.06 2.76.77.77 1.7 1.01 2.76 1.06 1.09.05 1.42.07 5.18.07s4.09-.02 5.18-.07c1.06-.05 1.99-.29 2.76-1.06.77-.77 1.01-1.7 1.06-2.76.05-1.09.07-1.42.07-5.18s-.02-4.09-.07-5.18Zm-1.67 10.28c-.04.77-.21 1.19-.46 1.44-.25.25-.67.42-1.44.46-1.05.05-1.36.06-5.43.06-4.07 0-4.38-.01-5.43-.06-.77-.04-1.19-.21-1.44-.46-.25-.25-.42-.67-.46-1.44-.05-1.05-.06-1.36-.06-5.43 0-4.07.01-4.38.06-5.43.04-.77.21-1.19.46-1.44.25-.25.67-.42 1.44-.46 1.05-.05 1.36-.06 5.43-.06 4.07 0 4.38.01 5.43.06.77.04 1.19.21 1.44.46.25.25.42.67.46 1.44.05 1.05.06 1.36.06 5.43 0 4.07-.01 4.38-.06 5.43Z" fill="currentColor"/>
</svg>
